<svg width="265" height="85" viewBox="0 0 265 85" fill="none" xmlns="http://www.w3.org/2000/svg">
<path d="M19.33 29.2699C18.85 39.9899 18.87 52.4399 19.05 70.5399C19.051 70.6168 19.0242 70.6915 18.9746 70.7502C18.925 70.809 18.856 70.8479 18.78 70.8599L10.26 72.1799C10.2287 72.1842 10.1968 72.1818 10.1666 72.1727C10.1363 72.1635 10.1084 72.148 10.0847 72.1272C10.0609 72.1063 10.042 72.0805 10.0291 72.0517C10.0162 72.0228 10.0097 71.9915 10.01 71.9599V11.1299C10.01 10.3899 10.38 10.0199 11.12 10.0199L21.93 10.0299C22.45 10.0299 22.7767 10.2833 22.91 10.7899C25.7367 21.7033 28.54 31.9533 31.32 41.5399C31.62 42.5866 31.77 42.5633 31.77 41.4699L31.76 10.4899C31.76 10.1499 31.9267 9.98327 32.26 9.98994L40.16 10.0399C40.3227 10.04 40.4789 10.105 40.5949 10.221C40.7109 10.337 40.7774 10.4946 40.78 10.6599L40.8 67.3599C40.8 67.7933 40.5834 68.0366 40.15 68.0899L30.86 69.2399C30.5134 69.2799 30.2967 69.1333 30.21 68.7999L19.68 29.2299C19.48 28.4899 19.3634 28.5033 19.33 29.2699Z" fill="#EEEEEE"/>
<path d="M53.2 18.21L44.82 18.42C44.7146 18.4227 44.6097 18.4042 44.5115 18.3657C44.4133 18.3272 44.3239 18.2694 44.2484 18.1958C44.1729 18.1222 44.1129 18.0342 44.072 17.937C44.031 17.8398 44.0099 17.7355 44.01 17.63L43.98 10.8C43.98 10.6963 44.0004 10.5935 44.0401 10.4977C44.0798 10.4018 44.138 10.3148 44.2114 10.2414C44.2847 10.168 44.3718 10.1098 44.4677 10.0701C44.5635 10.0304 44.6662 10.01 44.77 10.01L73.3 10.03C73.4063 10.0299 73.5115 10.0513 73.6094 10.0929C73.7073 10.1344 73.7957 10.1953 73.8695 10.2719C73.9432 10.3485 74.0008 10.4391 74.0387 10.5385C74.0766 10.6378 74.094 10.7438 74.09 10.85L73.82 17.21C73.8098 17.4108 73.7235 17.6002 73.5785 17.7395C73.4336 17.8789 73.241 17.9577 73.04 17.96L64.78 18.02C64.5705 18.02 64.3695 18.1032 64.2214 18.2514C64.0732 18.3995 63.99 18.6005 63.99 18.81L64.01 65C64.0083 65.1962 63.9336 65.3848 63.8005 65.529C63.6674 65.6731 63.4854 65.7626 63.29 65.78L54.84 66.54C54.7313 66.5497 54.6219 66.5367 54.5185 66.502C54.4151 66.4673 54.32 66.4116 54.2392 66.3383C54.1584 66.265 54.0937 66.1758 54.0491 66.0763C54.0045 65.9768 53.9809 65.8691 53.98 65.76L54.01 19C54.01 18.8946 53.9889 18.7902 53.948 18.693C53.907 18.5958 53.8471 18.5078 53.7716 18.4342C53.6961 18.3606 53.6066 18.3028 53.5084 18.2643C53.4103 18.2258 53.3054 18.2073 53.2 18.21Z" fill="#EEEEEE"/>
<path d="M96.05 51.7C96.1766 38.32 96.1766 24.7066 96.05 10.86C96.0433 10.3266 96.3033 10.06 96.83 10.06L105.08 9.99997C105.68 9.9933 105.977 10.29 105.97 10.89C105.95 22.99 105.95 35.3666 105.97 48.02C105.977 51.3333 105.5 54.2666 104.54 56.82C101.96 63.7 94.31 65.66 87.52 64.77C82.35 64.1 79.15 61.32 77.84 56.6C77.46 55.24 76.99 54.07 76.99 52.63C77.0166 39.1233 77.01 25.1466 76.97 10.7C76.97 10.6041 76.9888 10.5092 77.0255 10.4206C77.0622 10.332 77.116 10.2516 77.1838 10.1838C77.2516 10.116 77.332 10.0622 77.4206 10.0255C77.5092 9.98885 77.6041 9.96997 77.7 9.96997L86.15 10.02C86.7366 10.0266 87.03 10.3233 87.03 10.91C86.97 25.1366 86.97 38.6466 87.03 51.44C87.05 54.44 88.64 56.08 91.64 56.01C94.5533 55.9433 96.0233 54.5066 96.05 51.7Z" fill="#EEEEEE"/>
<path d="M120.01 53.59L118.6 62.35C118.572 62.5202 118.485 62.6748 118.355 62.7865C118.225 62.8981 118.06 62.9596 117.89 62.96L109.32 62.99C109.248 62.9904 109.178 62.9719 109.116 62.9366C109.053 62.9012 109.001 62.8501 108.965 62.7884C108.928 62.7267 108.909 62.6565 108.908 62.5848C108.907 62.5132 108.925 62.4426 108.96 62.38C109.96 60.59 109.84 59.09 110.17 57.2C112.783 42.4333 115.573 27.1 118.54 11.2C118.687 10.4 119.167 10 119.98 10L132.68 10.01C132.851 10.0092 133.018 10.0686 133.151 10.178C133.284 10.2874 133.375 10.4401 133.41 10.61C136.183 24.4367 138.433 36.6567 140.16 47.27C140.953 52.1233 141.873 56.9967 142.92 61.89C143.06 62.55 142.79 62.88 142.11 62.88H133.92C133.38 62.88 133.01 62.6267 132.81 62.12C132.303 60.8667 132.05 59.62 132.05 58.38C132.043 56.7867 131.71 55.1667 131.05 53.52C130.91 53.1667 130.647 52.99 130.26 52.99L120.65 53.04C120.283 53.0467 120.07 53.23 120.01 53.59ZM122.3 39.32C121.94 41.02 122.2 42.89 121.48 44.46C121.253 44.9467 121.407 45.1867 121.94 45.18L129.56 45.15C129.644 45.149 129.726 45.1261 129.798 45.0836C129.87 45.041 129.93 44.9804 129.971 44.9076C130.013 44.8348 130.035 44.7524 130.034 44.6686C130.034 44.5848 130.012 44.5026 129.97 44.43C128.95 42.66 129.14 40.99 128.8 39.08C127.753 33.3067 126.847 27.74 126.08 22.38C125.793 20.38 125.497 20.3767 125.19 22.37C124.37 27.74 123.5 33.56 122.3 39.32Z" fill="#EEEEEE"/>
<path d="M156.89 40.81L156.93 62.63C156.93 62.7308 156.89 62.8274 156.819 62.8987C156.747 62.97 156.651 63.01 156.55 63.01L147.43 62.98C147.329 62.98 147.233 62.94 147.161 62.8687C147.09 62.7974 147.05 62.7008 147.05 62.6L146.99 10.4C146.99 10.2992 147.03 10.2026 147.101 10.1313C147.173 10.06 147.269 10.02 147.37 10.02L171.69 9.98999C171.791 9.98999 171.887 10.03 171.959 10.1013C172.03 10.1726 172.07 10.2692 172.07 10.37L172 17.52C172 17.6208 171.96 17.7174 171.889 17.7887C171.817 17.86 171.721 17.9 171.62 17.9L157.29 17.78C157.189 17.78 157.093 17.82 157.021 17.8913C156.95 17.9626 156.91 18.0592 156.91 18.16L156.89 31.84C156.89 31.9391 156.929 32.0342 156.998 32.1052C157.067 32.1762 157.161 32.2174 157.26 32.22L168.61 32.46C168.709 32.4626 168.803 32.5038 168.872 32.5748C168.941 32.6457 168.98 32.7409 168.98 32.84L169 40.37C169 40.4207 168.99 40.471 168.97 40.5178C168.95 40.5645 168.922 40.6069 168.885 40.6423C168.849 40.6777 168.806 40.7055 168.758 40.724C168.711 40.7425 168.661 40.7513 168.61 40.75L157.28 40.43C157.229 40.4287 157.179 40.4375 157.131 40.456C157.084 40.4745 157.041 40.5023 157.005 40.5377C156.968 40.5731 156.94 40.6155 156.92 40.6622C156.9 40.709 156.89 40.7592 156.89 40.81Z" fill="#FFC700"/>
<path d="M201.95 57.01L202.02 65.43C202.022 65.472 202.014 65.5138 201.999 65.5527C201.983 65.5917 201.959 65.6269 201.929 65.6561C201.899 65.6854 201.863 65.7079 201.823 65.7224C201.784 65.7368 201.742 65.7428 201.7 65.74L176.4 63.85C176.324 63.8449 176.253 63.8111 176.201 63.7554C176.149 63.6996 176.12 63.6262 176.12 63.55V10.31C176.12 10.2304 176.152 10.1541 176.208 10.0979C176.264 10.0416 176.341 10.01 176.42 10.01L185.78 9.98999C185.86 9.98999 185.936 10.0216 185.992 10.0779C186.049 10.1341 186.08 10.2104 186.08 10.29L186.07 55.49C186.07 55.5662 186.099 55.6396 186.151 55.6954C186.203 55.7511 186.274 55.7849 186.35 55.79L201.67 56.71C201.746 56.7151 201.817 56.7489 201.869 56.8046C201.921 56.8603 201.95 56.9338 201.95 57.01Z" fill="#FFC700"/>
<path d="M205.29 65.46V10.6C205.29 10.5225 205.305 10.4458 205.335 10.3742C205.365 10.3026 205.408 10.2376 205.463 10.1828C205.518 10.128 205.583 10.0845 205.654 10.0549C205.726 10.0252 205.803 10.01 205.88 10.01L214.94 9.97998C215.018 9.97998 215.094 9.99524 215.166 10.0249C215.237 10.0545 215.302 10.098 215.357 10.1528C215.412 10.2076 215.456 10.2726 215.485 10.3442C215.515 10.4158 215.53 10.4925 215.53 10.57V66.51C215.529 66.5929 215.511 66.6747 215.476 66.75C215.442 66.8254 215.392 66.8926 215.33 66.9473C215.267 67.0021 215.194 67.043 215.115 67.0676C215.036 67.0922 214.952 67.0998 214.87 67.09L205.81 66.05C205.666 66.0328 205.533 65.9631 205.437 65.8543C205.341 65.7454 205.289 65.6051 205.29 65.46Z" fill="#FFC700"/>
<path d="M236.27 46.28C236.103 46.9333 235.923 47.5633 235.73 48.17C233.623 54.7633 231.497 61.2767 229.35 67.71C229.097 68.4567 228.59 68.7367 227.83 68.55C225.87 68.0767 223.57 67.84 220.93 67.84C220.752 67.8401 220.577 67.7977 220.419 67.7166C220.261 67.6355 220.124 67.5179 220.021 67.3738C219.918 67.2297 219.852 67.0633 219.827 66.8886C219.803 66.7139 219.821 66.5361 219.88 66.37L229.88 38.44C230.08 37.891 230.08 37.289 229.88 36.74L220.39 10.22C220.343 10.08 220.393 10.01 220.54 10.01L230.55 10C230.703 10 230.803 10.07 230.85 10.21L237.45 30.18C237.537 30.4467 237.627 30.4467 237.72 30.18L244.44 10.27C244.5 10.09 244.623 10 244.81 10L253.84 10.01C253.967 10.01 254.007 10.07 253.96 10.19L244.21 38.15C244.113 38.4285 244.113 38.7315 244.21 39.01C247.817 49.55 251.27 60.46 254.57 71.74C254.584 71.7838 254.587 71.8304 254.578 71.8755C254.568 71.9207 254.547 71.9628 254.516 71.9978C254.485 72.0329 254.445 72.0597 254.4 72.0759C254.355 72.092 254.307 72.0969 254.26 72.09L244.56 70.66C244.273 70.62 244.09 70.4633 244.01 70.19L236.78 46.27C236.6 45.67 236.43 45.6733 236.27 46.28Z" fill="#FFC700"/>
</svg>
